<mxfile host="app.diagrams.net" modified="2023-12-04T15:18:01.135Z" agent="Mozilla/5.0 (Windows NT 10.0; Win64; x64) AppleWebKit/537.36 (KHTML, like Gecko) Chrome/119.0.0.0 Safari/537.36" etag="VXWDjcnP5ljclZ02nzCd" version="22.1.5" type="github">
  <diagram id="1wQXLLNI5Rqol_yiiQC_" name="Page-1">
    <mxGraphModel dx="1434" dy="738" grid="1" gridSize="10" guides="1" tooltips="1" connect="1" arrows="1" fold="1" page="1" pageScale="1" pageWidth="850" pageHeight="1100" math="0" shadow="0">
      <root>
        <mxCell id="0" />
        <mxCell id="1" parent="0" />
        <mxCell id="dKKqW1CaUHVO0xazXN6m-6" value="입력 배치 서술&lt;br&gt;(Input layout Description)&lt;br&gt;&lt;span style=&quot;font-size: 14px ; white-space: pre ; background-color: rgb(204 , 204 , 204)&quot;&gt;&lt;font color=&quot;#0000ff&quot;&gt;D3D12_INPUT_LAYOUT_DESC&lt;/font&gt;&lt;/span&gt;" style="rounded=0;whiteSpace=wrap;html=1;strokeColor=#CCCCCC;" parent="1" vertex="1">
          <mxGeometry x="40" y="40" width="230" height="60" as="geometry" />
        </mxCell>
        <mxCell id="dKKqW1CaUHVO0xazXN6m-8" value="정정 버퍼 생성 과정" style="rounded=1;whiteSpace=wrap;html=1;strokeColor=#CCCCCC;" parent="1" vertex="1">
          <mxGeometry x="370" y="60" width="165" height="30" as="geometry" />
        </mxCell>
        <mxCell id="dKKqW1CaUHVO0xazXN6m-119" style="edgeStyle=orthogonalEdgeStyle;rounded=0;orthogonalLoop=1;jettySize=auto;html=1;dashed=1;endArrow=none;endFill=0;" parent="1" source="dKKqW1CaUHVO0xazXN6m-135" edge="1">
          <mxGeometry relative="1" as="geometry">
            <mxPoint x="85" y="670" as="targetPoint" />
            <Array as="points">
              <mxPoint x="85" y="530" />
              <mxPoint x="85" y="530" />
            </Array>
          </mxGeometry>
        </mxCell>
        <mxCell id="dKKqW1CaUHVO0xazXN6m-110" value="&lt;span style=&quot;white-space: normal&quot;&gt;정정 버퍼 생성&lt;br&gt;&lt;/span&gt;" style="rounded=0;whiteSpace=wrap;html=1;strokeColor=#000000;fillColor=none;align=center;" parent="1" vertex="1">
          <mxGeometry x="30" y="300" width="110" height="30" as="geometry" />
        </mxCell>
        <mxCell id="dKKqW1CaUHVO0xazXN6m-111" value="실제로 그리는 함수는 DrawInstanced" style="rounded=0;whiteSpace=wrap;html=1;strokeColor=#000000;fillColor=none;align=center;" parent="1" vertex="1">
          <mxGeometry x="330" y="90" width="120" height="60" as="geometry" />
        </mxCell>
        <mxCell id="dKKqW1CaUHVO0xazXN6m-125" style="edgeStyle=orthogonalEdgeStyle;rounded=0;orthogonalLoop=1;jettySize=auto;html=1;exitX=0;exitY=0.5;exitDx=0;exitDy=0;entryX=1;entryY=0.235;entryDx=0;entryDy=0;entryPerimeter=0;dashed=1;endArrow=none;endFill=0;" parent="1" source="dKKqW1CaUHVO0xazXN6m-10" target="dKKqW1CaUHVO0xazXN6m-121" edge="1">
          <mxGeometry relative="1" as="geometry" />
        </mxCell>
        <mxCell id="dKKqW1CaUHVO0xazXN6m-10" value="D3D12_RESOURCE_DESC 구조체 채우기" style="text;html=1;align=center;verticalAlign=middle;fillColor=#ffffff;strokeColor=none;dashed=1;dashPattern=1 4;" parent="1" vertex="1">
          <mxGeometry x="100" y="380" width="240" height="25" as="geometry" />
        </mxCell>
        <mxCell id="dKKqW1CaUHVO0xazXN6m-126" style="edgeStyle=orthogonalEdgeStyle;rounded=0;orthogonalLoop=1;jettySize=auto;html=1;dashed=1;endArrow=none;endFill=0;" parent="1" source="dKKqW1CaUHVO0xazXN6m-15" target="dKKqW1CaUHVO0xazXN6m-121" edge="1">
          <mxGeometry relative="1" as="geometry" />
        </mxCell>
        <mxCell id="dKKqW1CaUHVO0xazXN6m-15" value="ID3D12Device::CreateCommittedResource 호출&amp;nbsp;" style="text;html=1;align=center;verticalAlign=middle;fillColor=#ffffff;strokeColor=none;dashed=1;dashPattern=1 4;" parent="1" vertex="1">
          <mxGeometry x="100" y="428" width="270" height="25" as="geometry" />
        </mxCell>
        <mxCell id="dKKqW1CaUHVO0xazXN6m-130" style="edgeStyle=orthogonalEdgeStyle;rounded=0;orthogonalLoop=1;jettySize=auto;html=1;exitX=0;exitY=0.5;exitDx=0;exitDy=0;entryX=1;entryY=0.788;entryDx=0;entryDy=0;entryPerimeter=0;dashed=1;endArrow=none;endFill=0;" parent="1" source="dKKqW1CaUHVO0xazXN6m-129" target="dKKqW1CaUHVO0xazXN6m-121" edge="1">
          <mxGeometry relative="1" as="geometry" />
        </mxCell>
        <mxCell id="dKKqW1CaUHVO0xazXN6m-129" value="ID3D12Resource 객체 생성" style="text;html=1;align=center;verticalAlign=middle;fillColor=#ffffff;strokeColor=none;dashed=1;dashPattern=1 4;" parent="1" vertex="1">
          <mxGeometry x="100" y="480" width="160" height="25" as="geometry" />
        </mxCell>
        <mxCell id="dKKqW1CaUHVO0xazXN6m-131" value="PSO" style="rounded=0;whiteSpace=wrap;html=1;dashed=1;dashPattern=1 4;strokeColor=#000000;fillColor=#ffffff;align=center;" parent="1" vertex="1">
          <mxGeometry x="600" y="160" width="120" height="30" as="geometry" />
        </mxCell>
        <mxCell id="dKKqW1CaUHVO0xazXN6m-134" value="&lt;span style=&quot;font-size: 12px ; text-align: left ; background-color: rgb(248 , 249 , 250)&quot;&gt;ID3D12GraphicsCommandList::IASetVertexBuffers&lt;/span&gt;" style="html=1;verticalAlign=bottom;endArrow=block;" parent="1" edge="1">
          <mxGeometry relative="1" as="geometry">
            <mxPoint x="86" y="660" as="sourcePoint" />
            <mxPoint x="510" y="660" as="targetPoint" />
          </mxGeometry>
        </mxCell>
        <mxCell id="dKKqW1CaUHVO0xazXN6m-139" value="" style="edgeStyle=orthogonalEdgeStyle;rounded=0;orthogonalLoop=1;jettySize=auto;html=1;dashed=1;endArrow=none;endFill=0;" parent="1" source="dKKqW1CaUHVO0xazXN6m-135" target="dKKqW1CaUHVO0xazXN6m-137" edge="1">
          <mxGeometry relative="1" as="geometry">
            <Array as="points">
              <mxPoint x="90" y="597" />
              <mxPoint x="90" y="597" />
            </Array>
          </mxGeometry>
        </mxCell>
        <mxCell id="dKKqW1CaUHVO0xazXN6m-136" style="edgeStyle=orthogonalEdgeStyle;rounded=0;orthogonalLoop=1;jettySize=auto;html=1;dashed=1;endArrow=none;endFill=0;" parent="1" source="dKKqW1CaUHVO0xazXN6m-110" target="dKKqW1CaUHVO0xazXN6m-135" edge="1">
          <mxGeometry relative="1" as="geometry">
            <mxPoint x="85" y="670" as="targetPoint" />
            <mxPoint x="85" y="330" as="sourcePoint" />
            <Array as="points" />
          </mxGeometry>
        </mxCell>
        <mxCell id="dKKqW1CaUHVO0xazXN6m-138" style="edgeStyle=orthogonalEdgeStyle;rounded=0;orthogonalLoop=1;jettySize=auto;html=1;exitX=0;exitY=0.5;exitDx=0;exitDy=0;entryX=0.907;entryY=0.523;entryDx=0;entryDy=0;entryPerimeter=0;dashed=1;endArrow=none;endFill=0;" parent="1" source="dKKqW1CaUHVO0xazXN6m-137" target="dKKqW1CaUHVO0xazXN6m-135" edge="1">
          <mxGeometry relative="1" as="geometry" />
        </mxCell>
        <mxCell id="dKKqW1CaUHVO0xazXN6m-137" value="정점 버퍼 뷰(D3D12_VERTEX_BUFFER_VIEW)" style="text;html=1;" parent="1" vertex="1">
          <mxGeometry x="100" y="582" width="280" height="30" as="geometry" />
        </mxCell>
        <mxCell id="dKKqW1CaUHVO0xazXN6m-121" value="" style="html=1;points=[];perimeter=orthogonalPerimeter;" parent="1" vertex="1">
          <mxGeometry x="80" y="350" width="10" height="181" as="geometry" />
        </mxCell>
        <mxCell id="dKKqW1CaUHVO0xazXN6m-135" value="" style="html=1;points=[];perimeter=orthogonalPerimeter;" parent="1" vertex="1">
          <mxGeometry x="80" y="562" width="10" height="70" as="geometry" />
        </mxCell>
        <mxCell id="dKKqW1CaUHVO0xazXN6m-143" style="edgeStyle=orthogonalEdgeStyle;rounded=0;orthogonalLoop=1;jettySize=auto;html=1;dashed=1;endArrow=none;endFill=0;" parent="1" source="dKKqW1CaUHVO0xazXN6m-157" edge="1">
          <mxGeometry relative="1" as="geometry">
            <mxPoint x="85" y="1069.9999999999998" as="targetPoint" />
            <Array as="points">
              <mxPoint x="85" y="930" />
              <mxPoint x="85" y="930" />
            </Array>
          </mxGeometry>
        </mxCell>
        <mxCell id="dKKqW1CaUHVO0xazXN6m-144" value="&lt;span style=&quot;white-space: normal&quot;&gt;인덱스 버퍼 생성&lt;br&gt;&lt;/span&gt;" style="rounded=0;whiteSpace=wrap;html=1;strokeColor=#000000;fillColor=none;align=center;" parent="1" vertex="1">
          <mxGeometry x="30" y="700" width="110" height="30" as="geometry" />
        </mxCell>
        <mxCell id="dKKqW1CaUHVO0xazXN6m-145" style="edgeStyle=orthogonalEdgeStyle;rounded=0;orthogonalLoop=1;jettySize=auto;html=1;exitX=0;exitY=0.5;exitDx=0;exitDy=0;entryX=1;entryY=0.235;entryDx=0;entryDy=0;entryPerimeter=0;dashed=1;endArrow=none;endFill=0;" parent="1" source="dKKqW1CaUHVO0xazXN6m-146" target="dKKqW1CaUHVO0xazXN6m-156" edge="1">
          <mxGeometry relative="1" as="geometry" />
        </mxCell>
        <mxCell id="dKKqW1CaUHVO0xazXN6m-146" value="D3D12_RESOURCE_DESC 구조체 채우기" style="text;html=1;align=center;verticalAlign=middle;fillColor=#ffffff;strokeColor=none;dashed=1;dashPattern=1 4;" parent="1" vertex="1">
          <mxGeometry x="100" y="780" width="240" height="25" as="geometry" />
        </mxCell>
        <mxCell id="dKKqW1CaUHVO0xazXN6m-147" style="edgeStyle=orthogonalEdgeStyle;rounded=0;orthogonalLoop=1;jettySize=auto;html=1;dashed=1;endArrow=none;endFill=0;" parent="1" source="dKKqW1CaUHVO0xazXN6m-148" target="dKKqW1CaUHVO0xazXN6m-156" edge="1">
          <mxGeometry relative="1" as="geometry" />
        </mxCell>
        <mxCell id="dKKqW1CaUHVO0xazXN6m-148" value="ID3D12Device::CreateCommittedResource 호출&amp;nbsp;" style="text;html=1;align=center;verticalAlign=middle;fillColor=#ffffff;strokeColor=none;dashed=1;dashPattern=1 4;" parent="1" vertex="1">
          <mxGeometry x="100" y="828" width="270" height="25" as="geometry" />
        </mxCell>
        <mxCell id="dKKqW1CaUHVO0xazXN6m-149" style="edgeStyle=orthogonalEdgeStyle;rounded=0;orthogonalLoop=1;jettySize=auto;html=1;exitX=0;exitY=0.5;exitDx=0;exitDy=0;entryX=1;entryY=0.788;entryDx=0;entryDy=0;entryPerimeter=0;dashed=1;endArrow=none;endFill=0;" parent="1" source="dKKqW1CaUHVO0xazXN6m-150" target="dKKqW1CaUHVO0xazXN6m-156" edge="1">
          <mxGeometry relative="1" as="geometry" />
        </mxCell>
        <mxCell id="dKKqW1CaUHVO0xazXN6m-150" value="ID3D12Resource 객체 생성" style="text;html=1;align=center;verticalAlign=middle;fillColor=#ffffff;strokeColor=none;dashed=1;dashPattern=1 4;" parent="1" vertex="1">
          <mxGeometry x="100" y="880" width="160" height="25" as="geometry" />
        </mxCell>
        <mxCell id="dKKqW1CaUHVO0xazXN6m-151" value="&lt;span style=&quot;font-size: 12px ; text-align: left ; background-color: rgb(248 , 249 , 250)&quot;&gt;ID3D12GraphicsCommandList::IASetVIndexBuffers&lt;/span&gt;" style="html=1;verticalAlign=bottom;endArrow=block;" parent="1" edge="1">
          <mxGeometry relative="1" as="geometry">
            <mxPoint x="85.99999999999977" y="1059.9999999999998" as="sourcePoint" />
            <mxPoint x="510" y="1059.9999999999998" as="targetPoint" />
          </mxGeometry>
        </mxCell>
        <mxCell id="dKKqW1CaUHVO0xazXN6m-152" value="" style="edgeStyle=orthogonalEdgeStyle;rounded=0;orthogonalLoop=1;jettySize=auto;html=1;dashed=1;endArrow=none;endFill=0;" parent="1" source="dKKqW1CaUHVO0xazXN6m-157" target="dKKqW1CaUHVO0xazXN6m-155" edge="1">
          <mxGeometry relative="1" as="geometry">
            <Array as="points">
              <mxPoint x="90" y="997" />
              <mxPoint x="90" y="997" />
            </Array>
          </mxGeometry>
        </mxCell>
        <mxCell id="dKKqW1CaUHVO0xazXN6m-153" style="edgeStyle=orthogonalEdgeStyle;rounded=0;orthogonalLoop=1;jettySize=auto;html=1;dashed=1;endArrow=none;endFill=0;" parent="1" source="dKKqW1CaUHVO0xazXN6m-144" target="dKKqW1CaUHVO0xazXN6m-157" edge="1">
          <mxGeometry relative="1" as="geometry">
            <mxPoint x="85" y="1070" as="targetPoint" />
            <mxPoint x="85" y="730" as="sourcePoint" />
            <Array as="points" />
          </mxGeometry>
        </mxCell>
        <mxCell id="dKKqW1CaUHVO0xazXN6m-154" style="edgeStyle=orthogonalEdgeStyle;rounded=0;orthogonalLoop=1;jettySize=auto;html=1;exitX=0;exitY=0.5;exitDx=0;exitDy=0;entryX=0.907;entryY=0.523;entryDx=0;entryDy=0;entryPerimeter=0;dashed=1;endArrow=none;endFill=0;" parent="1" source="dKKqW1CaUHVO0xazXN6m-155" target="dKKqW1CaUHVO0xazXN6m-157" edge="1">
          <mxGeometry relative="1" as="geometry" />
        </mxCell>
        <mxCell id="dKKqW1CaUHVO0xazXN6m-155" value="인덱스 버퍼 뷰(D3D12_INDEX_BUFFER_VIEW)" style="text;html=1;" parent="1" vertex="1">
          <mxGeometry x="100" y="980" width="280" height="32" as="geometry" />
        </mxCell>
        <mxCell id="dKKqW1CaUHVO0xazXN6m-156" value="" style="html=1;points=[];perimeter=orthogonalPerimeter;" parent="1" vertex="1">
          <mxGeometry x="80" y="750" width="10" height="181" as="geometry" />
        </mxCell>
        <mxCell id="dKKqW1CaUHVO0xazXN6m-157" value="" style="html=1;points=[];perimeter=orthogonalPerimeter;" parent="1" vertex="1">
          <mxGeometry x="80" y="962" width="10" height="70" as="geometry" />
        </mxCell>
      </root>
    </mxGraphModel>
  </diagram>
</mxfile>
